<svg width="24" height="24" viewBox="0 0 24 24" fill="none" xmlns="http://www.w3.org/2000/svg">
<path d="M11.4799 3.499C11.5222 3.39583 11.5942 3.30758 11.6868 3.24546C11.7794 3.18334 11.8884 3.15018 11.9999 3.15018C12.1114 3.15018 12.2204 3.18334 12.313 3.24546C12.4056 3.30758 12.4776 3.39583 12.5199 3.499L14.6449 8.61C14.6847 8.70564 14.7501 8.78844 14.8339 8.84931C14.9177 8.91018 15.0167 8.94675 15.1199 8.955L20.6379 9.397C21.1369 9.437 21.3389 10.06 20.9589 10.385L16.7549 13.987C16.6764 14.0542 16.6178 14.1417 16.5857 14.24C16.5536 14.3382 16.5492 14.4434 16.5729 14.544L17.8579 19.929C17.8837 20.037 17.877 20.1503 17.8385 20.2545C17.8 20.3587 17.7314 20.4491 17.6416 20.5144C17.5517 20.5797 17.4445 20.6169 17.3335 20.6212C17.2225 20.6256 17.1127 20.597 17.0179 20.539L12.2929 17.654C12.2047 17.6001 12.1033 17.5716 11.9999 17.5716C11.8965 17.5716 11.7951 17.6001 11.7069 17.654L6.98192 20.54C6.88718 20.598 6.77737 20.6266 6.66638 20.6222C6.55538 20.6179 6.44817 20.5807 6.35829 20.5154C6.26841 20.4501 6.19988 20.3597 6.16137 20.2555C6.12286 20.1513 6.11609 20.038 6.14192 19.93L7.42692 14.544C7.45075 14.4434 7.44637 14.3382 7.41426 14.2399C7.38215 14.1416 7.32355 14.0541 7.24492 13.987L3.04092 10.385C2.95626 10.3128 2.89493 10.2172 2.86468 10.1101C2.83443 10.0031 2.83664 9.88945 2.87101 9.78365C2.90538 9.67785 2.97038 9.58464 3.05777 9.51581C3.14516 9.44698 3.25101 9.40563 3.36192 9.397L8.87992 8.955C8.98317 8.94675 9.08214 8.91018 9.16595 8.84931C9.24975 8.78844 9.31514 8.70564 9.35492 8.61L11.4799 3.499Z" fill="#FFAB00" stroke="black" stroke-width="1.5" stroke-linecap="round" stroke-linejoin="round"/>
</svg>
